<svg id="svg" version="1.1" xmlns="http://www.w3.org/2000/svg" xmlns:xlink="http://www.w3.org/1999/xlink" width="400" height="400" viewBox="0, 0, 400,400"><g id="svgg"><path id="path0" d="M108.159 66.700 C 107.709 68.156,107.280 68.606,106.157 68.802 C 105.225 68.965,104.974 69.237,104.867 70.202 C 104.793 70.861,104.499 71.670,104.214 72.000 C 103.928 72.330,103.558 73.050,103.390 73.600 C 103.222 74.150,102.751 74.835,102.343 75.123 C 101.658 75.604,101.600 76.322,101.600 84.270 L 101.600 92.895 102.980 95.167 C 103.739 96.416,104.532 98.207,104.744 99.148 C 104.955 100.088,105.400 101.159,105.733 101.529 C 106.065 101.898,106.461 102.695,106.612 103.300 C 106.763 103.905,107.045 104.400,107.238 104.400 C 107.431 104.400,107.791 105.205,108.039 106.188 C 108.286 107.171,108.739 108.183,109.044 108.437 C 109.350 108.690,109.600 109.208,109.600 109.587 C 109.600 109.966,109.960 110.602,110.400 111.000 C 110.958 111.505,111.200 112.232,111.200 113.400 C 111.200 114.568,111.442 115.295,112.000 115.800 C 112.440 116.198,112.800 116.782,112.800 117.098 C 112.800 117.414,113.427 118.406,114.194 119.302 C 114.961 120.197,115.700 121.576,115.837 122.365 C 116.092 123.833,117.864 127.869,118.398 128.199 C 118.561 128.300,118.820 129.490,118.973 130.845 C 119.126 132.199,119.526 133.725,119.860 134.236 C 120.430 135.105,120.327 136.000,119.658 136.000 C 118.601 136.000,111.323 128.727,110.538 126.886 C 110.230 126.164,109.554 125.380,109.036 125.144 C 108.337 124.825,108.037 124.287,107.872 123.057 C 107.731 122.002,107.351 121.201,106.825 120.851 C 106.371 120.549,106.000 120.132,106.000 119.923 C 106.000 119.714,105.745 119.287,105.432 118.975 C 105.120 118.663,104.747 117.191,104.604 115.704 C 104.461 114.217,104.078 112.190,103.753 111.200 C 103.428 110.210,103.066 107.870,102.948 106.000 C 102.650 101.274,102.647 101.271,100.764 103.267 C 98.510 105.655,98.400 106.087,98.400 112.564 C 98.400 117.768,98.471 118.340,99.200 119.000 C 99.640 119.398,100.000 120.106,100.000 120.573 C 100.000 121.040,100.315 121.867,100.699 122.411 C 101.084 122.955,101.489 124.390,101.599 125.600 C 101.784 127.628,101.884 127.810,102.871 127.924 C 104.133 128.070,104.672 128.631,104.862 129.997 C 104.966 130.750,105.295 131.045,106.200 131.197 C 107.056 131.342,107.572 131.766,108.000 132.676 C 108.330 133.377,108.984 134.050,109.453 134.171 C 109.923 134.293,110.913 134.960,111.653 135.655 C 112.394 136.350,113.540 137.169,114.200 137.476 C 116.021 138.324,118.147 139.955,118.648 140.890 C 118.894 141.350,119.704 141.923,120.448 142.165 C 121.597 142.537,121.781 142.766,121.674 143.680 C 121.571 144.566,121.837 144.940,123.174 145.784 C 124.186 146.422,124.800 147.110,124.800 147.605 C 124.800 148.969,123.110 148.572,121.370 146.801 C 119.909 145.312,119.685 145.218,118.131 145.441 C 116.750 145.640,116.338 145.537,115.742 144.841 C 115.264 144.283,114.548 143.999,113.611 143.998 C 112.835 143.996,111.684 143.726,111.054 143.398 C 109.263 142.463,104.213 143.159,100.556 144.843 C 99.652 145.259,98.200 145.600,97.328 145.600 C 95.929 145.600,95.678 145.750,95.172 146.889 C 94.823 147.676,94.220 148.265,93.626 148.401 C 92.995 148.545,92.321 149.250,91.712 150.401 C 91.195 151.378,90.419 152.554,89.986 153.015 C 88.939 154.129,88.823 159.989,89.831 160.826 C 90.178 161.114,90.899 162.212,91.433 163.266 C 92.006 164.396,92.892 165.434,93.595 165.798 C 94.250 166.136,95.050 166.923,95.371 167.545 C 96.391 169.516,109.871 169.772,110.871 167.840 C 111.110 167.378,111.912 166.250,112.653 165.333 C 114.148 163.482,114.356 162.121,113.300 161.103 C 111.576 159.441,111.136 158.827,111.383 158.428 C 111.966 157.484,113.483 158.054,115.300 159.900 L 117.169 161.800 117.249 165.697 C 117.314 168.847,117.202 169.735,116.665 170.328 C 116.299 170.732,116.000 171.499,116.000 172.031 C 116.000 173.161,113.696 175.200,112.420 175.200 C 111.968 175.200,110.966 175.899,110.194 176.754 C 108.416 178.722,100.191 179.710,94.580 178.628 C 93.044 178.332,92.903 178.390,91.880 179.731 C 91.286 180.509,90.460 181.254,90.044 181.386 C 89.176 181.662,88.715 183.355,89.339 183.979 C 91.073 185.713,102.221 184.134,104.813 181.788 C 105.170 181.465,106.177 181.200,107.050 181.200 C 108.375 181.200,108.896 180.935,110.200 179.600 C 111.070 178.709,112.145 178.000,112.627 178.000 C 114.271 178.000,118.711 172.531,118.772 170.431 C 118.787 169.899,119.080 169.154,119.422 168.776 C 120.288 167.818,120.336 163.437,119.491 162.494 C 119.148 162.112,118.738 161.100,118.579 160.244 C 118.035 157.316,115.058 154.966,111.517 154.669 C 107.315 154.316,103.842 154.833,102.604 155.996 C 100.016 158.428,102.056 166.000,105.300 166.000 C 106.059 166.000,106.406 166.175,106.294 166.500 C 106.173 166.850,105.139 166.987,102.845 166.957 C 96.992 166.881,95.141 164.510,95.300 157.294 L 95.400 152.789 96.900 151.415 C 97.725 150.659,98.400 149.757,98.400 149.410 C 98.400 149.032,98.872 148.686,99.580 148.544 C 100.228 148.414,101.066 147.969,101.442 147.554 C 101.817 147.139,102.487 146.800,102.930 146.800 C 103.374 146.800,104.048 146.519,104.427 146.175 C 106.098 144.663,113.809 145.479,116.000 147.400 C 116.330 147.689,117.325 148.118,118.210 148.354 C 120.054 148.845,124.086 152.233,125.054 154.105 C 125.401 154.776,125.843 155.522,126.037 155.762 C 126.230 156.003,126.841 156.766,127.394 157.458 C 127.947 158.150,128.400 159.067,128.400 159.496 C 128.400 159.925,128.760 160.602,129.200 161.000 C 129.640 161.398,130.006 162.101,130.013 162.562 C 130.020 163.023,130.290 163.749,130.613 164.176 C 131.716 165.635,131.450 180.502,130.300 181.703 C 129.805 182.220,128.996 183.129,128.503 183.722 C 127.937 184.401,127.209 184.800,126.534 184.800 C 125.945 184.800,125.141 185.091,124.748 185.447 C 123.105 186.934,120.000 184.718,120.000 182.060 C 120.000 178.169,126.118 176.273,127.183 179.834 C 127.504 180.910,127.533 180.860,127.551 179.200 C 127.589 175.768,120.393 173.294,119.115 176.300 C 118.858 176.905,118.284 177.812,117.839 178.316 C 116.833 179.456,116.853 182.026,117.879 183.540 C 118.274 184.123,118.807 185.077,119.063 185.661 C 120.409 188.727,125.727 189.686,128.059 187.283 C 128.957 186.357,129.840 185.600,130.021 185.600 C 130.202 185.600,130.914 184.385,131.604 182.900 C 132.294 181.415,133.205 179.534,133.629 178.721 C 134.632 176.797,134.728 171.047,133.781 169.695 C 133.441 169.209,133.015 167.496,132.835 165.889 C 132.654 164.282,132.213 162.399,131.854 161.703 C 131.438 160.900,131.199 159.450,131.197 157.720 C 131.195 155.679,130.996 154.701,130.400 153.800 C 129.963 153.140,129.604 152.235,129.603 151.789 C 129.601 151.343,129.340 150.607,129.022 150.153 C 128.705 149.700,128.316 148.357,128.158 147.169 C 127.959 145.665,127.450 144.410,126.484 143.035 C 125.338 141.405,125.062 140.603,124.896 138.431 C 124.727 136.200,124.491 135.547,123.348 134.133 C 122.299 132.835,122.000 132.095,122.000 130.796 C 122.000 129.732,121.710 128.757,121.200 128.109 C 120.760 127.550,120.400 126.763,120.400 126.360 C 120.400 125.958,120.040 125.435,119.600 125.200 C 118.611 124.671,118.350 114.722,119.310 114.120 C 119.590 113.944,120.131 113.310,120.512 112.711 C 121.857 110.595,126.905 108.880,127.979 110.174 C 128.241 110.490,129.002 110.869,129.670 111.015 C 130.411 111.178,131.138 111.725,131.537 112.419 C 132.274 113.703,133.539 114.224,133.864 113.377 C 134.162 112.601,131.893 108.983,129.675 106.700 C 127.842 104.813,127.812 104.800,125.198 104.800 L 122.565 104.800 120.683 106.795 C 119.534 108.011,118.800 109.158,118.800 109.734 C 118.800 110.253,118.444 111.088,118.008 111.590 C 117.573 112.092,117.103 113.108,116.965 113.848 C 116.661 115.466,116.183 115.302,115.838 113.459 C 115.698 112.717,115.228 111.787,114.792 111.393 C 114.356 110.999,114.000 110.282,114.000 109.800 C 114.000 109.318,113.640 108.598,113.200 108.200 C 112.760 107.802,112.400 107.113,112.400 106.670 C 112.400 106.226,112.134 105.569,111.808 105.209 C 111.433 104.795,111.118 103.245,110.948 100.978 C 110.778 98.720,110.406 96.886,109.939 96.006 C 109.533 95.239,109.194 94.249,109.187 93.806 C 109.180 93.363,108.910 92.651,108.587 92.224 C 107.708 91.061,107.719 72.331,108.600 71.600 C 108.930 71.326,109.200 70.764,109.200 70.351 C 109.200 69.938,109.560 69.240,110.000 68.800 C 111.293 67.507,111.071 66.000,109.587 66.000 C 108.782 66.000,108.302 66.235,108.159 66.700 M289.200 69.221 C 289.200 71.602,289.398 72.827,289.961 73.921 C 291.622 77.148,292.000 78.490,292.000 81.165 C 292.000 83.110,291.826 84.046,291.400 84.400 C 290.957 84.768,290.799 85.750,290.797 88.149 C 290.795 90.720,290.629 91.651,290.000 92.600 C 289.359 93.568,289.205 94.480,289.203 97.321 C 289.201 99.991,289.016 101.199,288.440 102.321 C 286.306 106.473,286.000 107.167,285.998 107.854 C 285.996 108.265,285.695 109.140,285.327 109.800 C 284.960 110.460,284.556 111.988,284.430 113.196 C 284.037 116.952,281.200 115.973,281.200 112.081 C 281.200 110.370,281.027 109.994,279.600 108.600 C 278.720 107.741,278.000 106.832,278.000 106.581 C 278.000 105.487,276.520 104.800,274.169 104.803 C 271.146 104.806,270.058 105.510,266.500 109.768 C 265.935 110.444,265.818 113.440,266.344 113.765 C 266.533 113.882,267.336 113.257,268.128 112.375 L 269.567 110.772 273.641 110.886 C 276.772 110.974,277.788 111.139,278.029 111.600 C 279.472 114.360,280.331 116.586,280.095 116.956 C 279.940 117.200,279.810 118.956,279.806 120.857 C 279.801 123.582,279.652 124.478,279.100 125.089 C 278.597 125.645,278.400 126.539,278.400 128.270 C 278.400 130.168,278.231 130.829,277.600 131.400 C 277.160 131.798,276.800 132.342,276.800 132.608 C 276.800 132.874,276.467 133.521,276.061 134.046 C 275.654 134.571,275.214 135.933,275.083 137.073 C 274.862 138.989,273.422 141.968,272.416 142.590 C 272.187 142.731,272.000 143.985,272.000 145.375 C 272.000 147.055,271.812 148.058,271.439 148.367 C 271.131 148.623,270.760 149.306,270.614 149.885 C 270.469 150.463,270.002 151.380,269.575 151.922 C 268.996 152.658,268.800 153.540,268.800 155.404 C 268.800 156.776,268.528 158.669,268.196 159.610 C 267.864 160.551,267.481 162.329,267.345 163.561 C 267.209 164.792,266.785 166.340,266.402 167.000 C 264.519 170.247,266.153 182.006,268.618 182.952 C 269.006 183.100,269.210 183.559,269.137 184.117 C 268.888 186.017,272.557 188.970,275.092 188.911 C 277.428 188.856,280.447 186.941,281.015 185.154 C 281.160 184.696,281.621 183.979,282.039 183.561 C 283.108 182.492,283.098 179.194,282.023 178.220 C 281.595 177.833,281.190 177.041,281.123 176.458 C 280.936 174.846,276.563 174.655,274.750 176.180 C 274.084 176.741,273.282 177.200,272.969 177.200 C 272.601 177.200,272.400 177.632,272.400 178.424 C 272.400 179.137,272.567 179.544,272.800 179.400 C 273.020 179.264,273.200 178.893,273.200 178.576 C 273.200 177.739,276.809 177.822,278.574 178.700 C 279.943 179.381,279.981 179.463,279.990 181.764 C 280.005 185.388,276.798 187.808,274.907 185.600 C 274.530 185.160,273.878 184.800,273.458 184.800 C 272.432 184.800,270.000 183.264,270.000 182.616 C 270.000 182.331,269.730 181.874,269.400 181.600 C 268.898 181.183,268.802 179.596,268.811 171.851 L 268.822 162.600 270.026 161.419 C 270.696 160.761,271.421 159.475,271.662 158.518 C 271.932 157.448,272.664 156.230,273.600 155.294 C 274.428 154.466,275.173 153.433,275.257 152.998 C 275.341 152.562,275.890 151.976,276.476 151.695 C 277.063 151.414,277.987 150.656,278.529 150.011 C 279.532 148.820,281.504 147.968,288.260 145.807 C 290.429 145.114,292.242 145.242,294.687 146.263 C 295.395 146.558,296.402 146.800,296.925 146.800 C 297.448 146.800,298.193 147.150,298.580 147.577 C 298.967 148.005,299.759 148.410,300.342 148.477 C 301.164 148.573,301.428 148.848,301.527 149.709 C 301.601 150.351,302.073 151.091,302.648 151.468 C 306.792 154.183,305.616 163.926,300.843 166.425 C 299.656 167.046,298.495 167.745,298.263 167.977 C 297.588 168.652,295.942 168.438,294.000 167.423 L 292.201 166.482 293.800 165.793 C 294.680 165.413,295.670 164.944,296.000 164.751 C 296.330 164.557,297.005 164.223,297.500 164.009 C 298.324 163.653,298.400 163.354,298.400 160.477 L 298.400 157.334 296.773 156.027 L 295.146 154.719 290.273 154.880 L 285.400 155.042 283.542 156.874 C 282.520 157.882,281.554 159.132,281.394 159.653 C 281.235 160.174,280.881 160.870,280.606 161.200 C 279.530 162.492,279.524 167.215,280.595 169.400 C 281.134 170.500,281.581 171.680,281.587 172.022 C 281.594 172.364,282.187 173.284,282.903 174.067 C 283.620 174.849,284.389 176.009,284.611 176.645 C 284.955 177.630,285.256 177.818,286.646 177.920 C 287.934 178.015,288.601 178.372,289.820 179.620 C 290.718 180.540,291.740 181.200,292.267 181.200 C 292.765 181.200,294.388 181.868,295.874 182.685 C 298.959 184.381,309.479 185.492,310.718 184.253 C 312.209 182.762,307.965 178.377,305.820 179.192 C 304.109 179.843,296.352 179.690,295.424 178.987 C 294.996 178.664,293.878 178.400,292.937 178.400 C 291.248 178.400,288.800 176.751,288.800 175.613 C 288.800 175.386,288.364 175.200,287.831 175.200 C 286.414 175.200,284.526 173.416,283.381 170.996 C 282.830 169.831,282.113 168.776,281.789 168.651 C 280.983 168.342,280.980 164.681,281.785 164.013 C 282.106 163.746,282.486 163.139,282.628 162.664 C 282.771 162.189,283.215 161.440,283.616 161.000 C 284.016 160.560,284.798 159.705,285.353 159.100 C 285.936 158.466,286.785 158.000,287.358 158.000 C 288.597 158.000,288.981 158.552,288.196 159.204 C 287.868 159.476,287.600 159.887,287.600 160.117 C 287.600 160.348,287.336 160.828,287.014 161.185 C 286.304 161.969,287.099 165.189,288.345 166.579 C 288.750 167.031,289.192 167.715,289.328 168.100 C 289.497 168.579,290.000 168.800,290.924 168.800 C 291.666 168.800,293.156 169.068,294.236 169.396 C 296.716 170.148,297.775 170.154,298.385 169.417 C 298.698 169.041,299.809 168.793,301.531 168.717 C 303.969 168.610,304.235 168.510,304.704 167.530 C 304.985 166.942,305.756 166.222,306.418 165.930 C 307.288 165.547,307.733 164.985,308.026 163.900 C 308.249 163.075,308.572 162.400,308.745 162.400 C 311.269 162.400,310.962 152.984,308.387 151.392 C 308.174 151.260,308.000 150.749,308.000 150.256 C 308.000 149.121,307.288 148.400,306.167 148.400 C 305.648 148.400,304.881 147.858,304.272 147.059 C 303.421 145.943,302.910 145.677,301.242 145.480 C 300.139 145.349,298.741 144.918,298.135 144.521 C 296.549 143.482,286.040 143.478,284.892 144.516 C 284.479 144.890,283.255 145.301,282.171 145.430 C 279.646 145.729,278.401 146.346,277.955 147.518 C 277.439 148.877,275.450 148.625,275.281 147.180 C 275.157 146.117,278.556 142.000,279.557 142.000 C 279.816 142.000,280.399 141.370,280.853 140.600 C 281.408 139.659,281.974 139.200,282.580 139.200 C 283.076 139.200,284.010 138.695,284.656 138.078 C 285.301 137.461,286.881 136.258,288.167 135.404 C 289.452 134.551,291.066 133.294,291.752 132.611 C 292.438 131.928,293.495 131.155,294.100 130.893 C 294.730 130.621,295.200 130.102,295.200 129.680 C 295.200 129.274,295.920 128.338,296.800 127.600 C 298.254 126.380,298.400 126.084,298.400 124.357 C 298.400 123.081,298.630 122.228,299.100 121.758 C 299.630 121.228,299.857 120.115,300.035 117.166 C 300.207 114.304,300.446 113.097,300.935 112.608 C 301.747 111.796,301.758 112.036,300.809 109.944 C 300.374 108.985,300.014 107.534,300.009 106.720 C 300.003 105.788,299.764 105.107,299.362 104.883 C 299.012 104.687,298.602 103.924,298.451 103.189 C 298.248 102.195,297.907 101.779,297.125 101.570 C 295.789 101.213,295.674 101.796,295.617 109.200 C 295.575 114.746,294.560 118.457,292.911 119.090 C 292.611 119.205,292.399 119.969,292.398 120.943 C 292.396 122.542,290.652 125.200,289.605 125.200 C 289.410 125.200,289.194 125.784,289.125 126.497 C 289.033 127.451,288.710 127.933,287.903 128.318 C 287.300 128.605,286.597 129.236,286.340 129.720 C 285.692 130.944,280.508 135.912,279.568 136.210 C 278.054 136.691,278.199 135.240,279.832 133.567 C 281.277 132.087,281.366 131.856,281.279 129.792 C 281.195 127.765,281.314 127.433,282.794 125.560 C 284.217 123.759,284.400 123.284,284.400 121.378 C 284.400 119.638,284.552 119.147,285.200 118.800 C 285.640 118.565,286.000 118.183,286.000 117.953 C 286.000 117.723,286.618 116.780,287.374 115.858 C 288.374 114.637,288.823 113.620,289.021 112.123 C 289.235 110.509,289.586 109.783,290.647 108.754 C 291.499 107.928,292.000 107.059,292.000 106.406 C 292.000 105.836,292.360 104.663,292.800 103.800 C 293.240 102.937,293.600 101.999,293.600 101.715 C 293.600 101.432,293.932 100.868,294.337 100.463 C 294.851 99.949,295.156 98.835,295.348 96.777 C 295.498 95.154,295.887 93.422,296.211 92.927 C 296.535 92.433,296.800 91.686,296.800 91.268 C 296.800 90.850,297.175 90.031,297.634 89.447 C 298.761 88.014,298.660 79.790,297.500 78.509 C 297.115 78.085,296.796 77.391,296.791 76.969 C 296.786 76.546,296.430 75.750,296.000 75.200 C 295.570 74.650,295.214 73.641,295.209 72.958 C 295.204 72.245,294.817 71.290,294.300 70.713 C 293.805 70.161,292.716 68.875,291.880 67.855 C 289.635 65.115,289.200 65.337,289.200 69.221 M154.856 157.213 C 154.336 157.646,153.522 158.000,153.045 158.000 C 151.609 158.000,148.537 161.499,148.304 163.400 C 148.196 164.280,147.869 165.573,147.576 166.273 C 147.111 167.387,147.137 167.737,147.781 169.073 C 148.186 169.913,148.644 170.870,148.799 171.200 C 148.955 171.530,149.513 171.853,150.041 171.919 C 150.568 171.984,151.576 172.335,152.280 172.699 C 153.475 173.316,153.610 173.315,154.311 172.680 C 154.725 172.306,155.522 172.000,156.084 172.000 C 156.788 172.000,157.450 171.548,158.216 170.543 L 159.327 169.087 158.618 167.001 C 157.844 164.722,158.059 162.984,159.069 163.371 C 159.397 163.497,159.814 163.600,159.995 163.600 C 161.149 163.600,162.976 168.278,162.988 171.266 C 163.003 175.028,163.148 174.890,159.106 174.972 C 154.909 175.058,154.800 175.133,154.800 177.944 C 154.800 180.804,155.193 181.200,158.031 181.200 C 159.453 181.200,160.470 181.403,160.751 181.741 C 161.327 182.435,160.891 185.827,160.146 186.445 C 159.846 186.694,159.600 187.208,159.600 187.587 C 159.600 187.966,159.260 188.583,158.845 188.959 C 158.295 189.457,158.045 190.353,157.924 192.261 C 157.806 194.107,157.570 194.985,157.123 195.235 C 156.775 195.430,156.365 196.087,156.213 196.695 C 156.062 197.303,155.705 198.070,155.420 198.400 C 155.135 198.730,154.814 199.824,154.708 200.831 C 154.579 202.047,154.024 203.390,153.057 204.826 C 151.993 206.406,151.600 207.415,151.600 208.566 C 151.600 210.629,150.041 215.256,149.121 215.923 C 148.570 216.322,148.400 216.989,148.400 218.746 C 148.400 220.150,148.171 221.350,147.813 221.824 C 147.490 222.251,147.220 222.891,147.213 223.246 C 147.206 223.601,146.867 224.321,146.460 224.846 C 146.045 225.381,145.600 226.846,145.447 228.183 C 145.297 229.494,144.909 230.858,144.587 231.215 C 144.264 231.571,144.000 232.140,144.000 232.478 C 144.000 232.816,143.640 233.550,143.200 234.109 C 142.760 234.669,142.396 235.728,142.390 236.463 C 142.375 238.608,140.592 244.368,139.652 245.308 C 139.403 245.557,139.200 246.805,139.200 248.081 C 139.200 249.639,138.937 250.894,138.400 251.896 C 137.960 252.716,137.600 253.699,137.600 254.079 C 137.600 254.459,137.240 255.684,136.800 256.800 C 136.360 257.916,136.000 259.233,136.000 259.726 C 136.000 260.219,135.640 260.930,135.200 261.307 C 134.499 261.908,134.400 262.487,134.400 266.009 C 134.400 268.674,134.198 270.509,133.800 271.462 C 133.092 273.157,132.967 280.417,133.625 281.647 C 133.859 282.083,134.156 283.737,134.285 285.320 C 134.465 287.529,134.739 288.463,135.460 289.331 C 135.977 289.953,136.400 290.618,136.400 290.808 C 136.400 290.999,137.029 291.840,137.798 292.678 C 138.567 293.515,139.197 294.415,139.198 294.677 C 139.199 294.940,139.534 295.390,139.943 295.677 C 140.351 295.965,140.809 296.591,140.960 297.069 C 141.251 297.990,142.984 299.584,148.247 303.766 C 150.033 305.185,151.602 306.628,151.734 306.973 C 151.867 307.318,152.360 307.600,152.830 307.600 C 153.300 307.600,154.219 308.050,154.873 308.600 C 155.527 309.150,156.386 309.600,156.782 309.600 C 157.178 309.600,157.726 309.870,158.000 310.200 C 158.274 310.530,158.898 310.800,159.387 310.800 C 159.876 310.800,160.602 311.160,161.000 311.600 C 161.398 312.040,162.032 312.400,162.408 312.400 C 162.784 312.400,163.521 312.735,164.046 313.145 C 165.760 314.484,168.341 315.600,169.722 315.600 C 170.568 315.600,171.348 315.900,171.800 316.400 C 172.198 316.840,172.918 317.200,173.400 317.200 C 173.882 317.200,174.602 317.560,175.000 318.000 C 175.563 318.622,176.232 318.800,178.013 318.800 C 180.621 318.800,180.982 319.090,181.346 321.473 C 181.660 323.534,181.087 325.200,180.064 325.200 C 179.648 325.200,178.850 325.560,178.291 326.000 C 177.731 326.440,176.902 326.800,176.447 326.800 C 174.840 326.800,173.628 333.361,174.984 334.717 C 175.630 335.363,226.038 335.078,226.371 334.427 C 228.025 331.202,226.158 326.400,223.251 326.400 C 222.809 326.400,222.339 326.225,222.207 326.011 C 222.074 325.797,221.254 325.430,220.383 325.195 C 216.436 324.132,218.957 319.114,223.653 318.689 C 225.393 318.531,226.996 318.031,228.972 317.030 C 230.527 316.241,232.177 315.597,232.638 315.598 C 233.099 315.599,233.802 315.240,234.200 314.800 C 234.598 314.360,235.326 314.000,235.818 314.000 C 236.309 314.000,237.404 313.384,238.250 312.631 C 239.256 311.736,240.363 311.176,241.451 311.013 C 242.592 310.842,243.561 310.330,244.537 309.382 C 245.320 308.622,246.322 308.000,246.765 308.000 C 247.207 308.000,247.891 307.672,248.284 307.272 C 248.678 306.871,249.852 306.055,250.893 305.459 C 251.935 304.862,253.375 303.787,254.093 303.070 C 254.812 302.353,255.895 301.454,256.500 301.074 C 257.105 300.693,257.600 300.179,257.600 299.932 C 257.600 299.685,258.670 298.422,259.978 297.127 C 261.285 295.831,262.475 294.395,262.620 293.936 C 262.766 293.476,263.496 292.564,264.243 291.909 C 265.422 290.873,265.600 290.472,265.600 288.848 C 265.600 287.819,265.854 286.615,266.164 286.172 C 268.020 283.523,268.128 271.082,266.314 268.896 C 266.072 268.605,265.760 266.434,265.621 264.071 C 265.439 260.987,265.175 259.499,264.684 258.798 C 264.308 258.261,263.999 257.457,263.997 257.011 C 263.996 256.565,263.637 255.660,263.200 255.000 C 262.763 254.340,262.404 253.433,262.403 252.985 C 262.401 252.536,262.040 251.463,261.600 250.600 C 261.160 249.737,260.800 248.242,260.800 247.277 C 260.800 246.313,260.537 245.046,260.216 244.462 C 258.768 241.826,258.000 239.496,257.994 237.722 C 257.991 236.665,257.728 235.350,257.410 234.800 C 257.092 234.250,256.723 233.530,256.590 233.200 C 256.457 232.870,256.009 231.880,255.594 231.000 C 255.178 230.120,254.758 228.511,254.660 227.424 C 254.553 226.245,254.223 225.260,253.841 224.980 C 253.488 224.723,253.200 224.110,253.200 223.619 C 253.200 223.128,252.840 222.269,252.400 221.709 C 251.808 220.956,251.600 220.086,251.600 218.360 C 251.600 216.438,251.460 215.953,250.800 215.600 C 250.360 215.365,250.000 214.928,250.000 214.630 C 250.000 214.331,249.644 213.303,249.209 212.344 C 248.774 211.385,248.414 210.115,248.409 209.521 C 248.401 208.561,246.995 205.420,246.045 204.242 C 245.849 203.999,245.562 202.683,245.407 201.318 C 245.252 199.953,244.872 198.626,244.563 198.369 C 244.253 198.112,244.000 197.571,244.000 197.167 C 244.000 196.762,243.663 196.109,243.250 195.716 C 242.773 195.260,242.394 194.129,242.210 192.607 C 241.999 190.869,241.542 189.645,240.539 188.134 C 239.301 186.269,239.171 185.815,239.279 183.727 L 239.400 181.400 242.200 181.200 L 245.000 181.000 245.116 178.158 L 245.233 175.315 243.116 175.061 C 241.952 174.921,240.066 174.805,238.924 174.803 C 236.491 174.799,236.469 174.774,236.150 171.723 C 235.953 169.840,236.032 169.271,236.552 168.840 C 236.909 168.544,237.200 167.911,237.200 167.433 C 237.200 166.093,241.068 162.400,242.471 162.400 C 244.045 162.400,243.940 163.420,242.163 165.400 C 239.796 168.037,240.675 172.000,243.627 172.000 C 244.218 172.000,244.926 172.270,245.200 172.600 C 245.474 172.930,246.194 173.200,246.800 173.200 C 247.406 173.200,248.126 172.930,248.400 172.600 C 248.674 172.270,249.304 172.000,249.800 172.000 C 251.700 172.000,252.267 169.854,251.757 164.600 C 251.462 161.554,248.909 158.004,247.010 157.997 C 246.565 157.996,245.660 157.637,245.000 157.200 C 243.344 156.103,239.903 156.103,238.509 157.200 C 237.832 157.733,236.875 158.003,235.646 158.009 C 232.546 158.025,228.941 162.170,228.175 166.600 C 228.023 167.480,227.624 168.514,227.289 168.899 C 226.953 169.283,226.571 170.723,226.439 172.099 L 226.200 174.600 223.452 174.719 L 220.704 174.839 220.919 173.719 C 221.037 173.104,221.325 171.880,221.558 171.000 C 221.790 170.120,221.985 168.455,221.990 167.300 C 221.996 166.145,222.180 165.200,222.400 165.200 C 222.620 165.200,222.800 165.009,222.800 164.776 C 222.800 164.532,222.589 164.489,222.300 164.676 C 222.025 164.854,220.450 165.183,218.800 165.407 L 215.800 165.814 215.916 168.603 C 215.980 170.138,216.205 171.565,216.416 171.776 C 218.079 173.439,215.877 174.111,213.024 172.811 C 210.316 171.578,210.323 169.062,213.045 165.135 C 214.636 162.839,213.947 162.400,208.755 162.400 L 204.864 162.400 204.603 161.213 C 204.285 159.764,203.291 159.517,198.443 159.684 C 195.009 159.803,194.796 159.905,194.241 161.700 C 194.053 162.311,193.468 162.400,189.662 162.400 C 186.329 162.400,185.184 162.538,184.815 162.982 C 184.278 163.629,184.571 164.400,185.354 164.400 C 186.126 164.400,187.600 166.148,187.600 167.064 C 187.600 167.511,187.960 168.202,188.400 168.600 C 190.200 170.229,189.146 172.136,186.000 172.943 C 183.178 173.666,182.652 173.321,183.389 171.231 C 184.945 166.821,184.544 163.560,182.624 165.013 C 181.639 165.757,179.232 165.750,178.241 165.000 C 176.861 163.956,176.108 166.160,177.363 167.569 C 178.019 168.305,178.108 168.921,178.046 172.300 L 178.000 174.800 175.819 174.800 L 173.637 174.800 172.819 172.949 C 172.284 171.740,172.000 170.248,172.000 168.643 C 172.000 165.223,171.174 163.710,167.119 159.700 C 165.599 158.196,165.188 158.000,163.562 158.000 C 162.232 158.000,161.524 157.779,161.000 157.200 C 159.987 156.081,156.205 156.089,154.856 157.213 M295.134 159.654 C 295.060 160.174,294.820 160.565,294.600 160.521 C 294.087 160.420,293.861 159.339,294.179 158.510 C 294.541 157.568,295.300 158.478,295.134 159.654 M109.200 163.176 C 109.200 166.318,108.155 166.167,107.981 163.000 C 107.888 161.311,107.927 161.200,108.600 161.200 C 109.052 161.200,109.200 161.686,109.200 163.176 M293.388 161.580 C 293.517 161.789,293.257 162.155,292.811 162.394 C 292.230 162.705,292.000 163.231,292.000 164.247 C 292.000 166.243,291.089 165.792,290.717 163.612 C 290.555 162.663,290.518 161.733,290.635 161.544 C 290.923 161.078,293.095 161.106,293.388 161.580 M206.699 167.871 C 207.909 171.082,207.852 171.516,206.181 171.830 C 202.619 172.498,200.528 170.665,202.174 168.316 C 202.518 167.824,202.800 167.142,202.800 166.800 C 202.800 166.458,203.093 165.760,203.451 165.249 L 204.102 164.320 205.112 165.330 C 205.668 165.886,206.382 167.029,206.699 167.871 M196.854 166.300 C 197.094 166.905,197.540 167.878,197.845 168.462 C 199.156 170.971,197.989 172.151,194.424 171.919 C 192.250 171.777,191.873 170.701,193.006 167.866 C 194.206 164.862,195.994 164.134,196.854 166.300 M216.894 181.400 C 217.341 182.008,217.258 272.089,216.810 272.798 C 216.304 273.598,211.215 273.640,210.263 272.851 C 209.588 272.292,209.179 181.755,209.848 181.086 C 210.251 180.682,216.574 180.964,216.894 181.400 M181.095 226.600 C 181.147 251.460,181.045 272.027,180.869 272.304 C 180.678 272.603,179.501 272.853,177.979 272.916 L 175.410 273.024 175.128 274.612 C 174.973 275.485,174.836 276.848,174.823 277.640 C 174.809 278.543,174.387 279.662,173.692 280.640 C 173.083 281.498,172.386 282.650,172.144 283.200 C 170.919 285.985,160.416 285.723,158.015 282.846 C 157.457 282.178,156.505 281.448,155.900 281.225 C 155.273 280.994,154.796 280.515,154.791 280.110 C 154.786 279.719,154.428 278.618,153.994 277.662 C 152.343 274.025,152.238 262.224,153.791 254.844 C 154.117 253.292,154.502 249.992,154.646 247.511 C 154.789 245.030,155.137 242.550,155.417 242.000 C 156.114 240.636,157.523 234.376,157.848 231.200 C 158.014 229.584,158.603 227.540,159.404 225.800 C 160.255 223.952,160.787 222.051,160.967 220.209 C 161.118 218.674,161.502 217.130,161.820 216.777 C 162.139 216.425,162.400 215.768,162.400 215.317 C 162.400 214.867,162.670 214.274,163.000 214.000 C 163.330 213.726,163.602 213.299,163.604 213.051 C 163.606 212.803,164.050 211.700,164.591 210.600 C 165.169 209.426,165.586 207.857,165.601 206.800 C 165.615 205.810,165.975 204.280,166.400 203.400 C 166.825 202.520,167.179 201.525,167.186 201.189 C 167.194 200.853,167.499 200.152,167.864 199.630 C 168.284 199.030,168.596 197.567,168.714 195.641 C 168.816 193.969,169.090 192.362,169.323 192.071 C 170.271 190.886,171.562 186.952,171.822 184.457 C 172.186 180.955,171.872 181.158,176.732 181.287 L 181.000 181.400 181.095 226.600 M190.332 181.718 C 190.909 182.413,190.994 270.637,190.419 272.150 C 189.787 273.811,185.630 273.728,184.422 272.030 C 183.383 270.572,182.195 183.011,183.197 181.803 C 183.854 181.012,189.688 180.941,190.332 181.718 M198.200 227.200 L 198.200 273.000 195.400 273.000 L 192.600 273.000 192.497 227.600 C 192.440 202.630,192.483 181.967,192.592 181.682 C 192.733 181.311,193.558 181.197,195.495 181.282 L 198.200 181.400 198.200 227.200 M207.520 181.680 C 208.031 182.191,208.249 270.431,207.744 272.316 C 207.513 273.178,207.327 273.226,204.649 273.116 L 201.800 273.000 201.698 227.425 C 201.618 191.229,201.700 181.784,202.098 181.531 C 202.883 181.033,206.986 181.146,207.520 181.680 M227.808 181.613 C 227.949 181.841,228.166 183.416,228.290 185.113 C 228.414 186.811,228.760 188.555,229.058 188.989 C 229.356 189.423,229.601 190.143,229.603 190.589 C 229.604 191.035,229.963 191.940,230.400 192.600 C 230.914 193.376,231.196 194.477,231.197 195.716 C 231.199 196.838,231.532 198.282,232.000 199.200 C 232.440 200.062,232.801 201.090,232.802 201.484 C 232.804 201.878,233.101 202.740,233.462 203.400 C 233.824 204.060,234.255 205.648,234.420 206.929 C 234.585 208.210,235.082 210.010,235.526 210.929 C 235.969 211.848,236.910 213.770,237.616 215.200 C 238.390 216.769,239.029 218.831,239.226 220.400 C 239.406 221.831,240.051 224.081,240.660 225.400 C 241.269 226.720,241.987 229.240,242.257 231.000 C 242.768 234.346,243.297 236.581,244.288 239.600 C 244.614 240.590,245.106 243.560,245.382 246.200 C 245.659 248.840,246.168 252.170,246.514 253.600 C 247.859 259.166,248.164 261.634,248.297 268.036 C 248.414 273.647,248.340 274.752,247.818 275.185 C 247.478 275.467,247.200 276.098,247.200 276.587 C 247.200 277.076,246.840 277.802,246.400 278.200 C 245.960 278.598,245.600 279.268,245.600 279.688 C 245.600 280.857,241.631 284.366,240.287 284.385 C 239.675 284.393,238.528 284.670,237.738 285.000 C 236.182 285.650,234.708 285.777,234.237 285.300 C 234.074 285.135,232.754 284.820,231.304 284.600 C 228.810 284.222,228.643 284.129,228.225 282.880 C 227.982 282.154,227.537 281.408,227.237 281.223 C 226.936 281.037,226.603 279.969,226.495 278.850 C 226.388 277.731,226.052 276.609,225.750 276.358 C 225.447 276.107,225.200 275.579,225.200 275.184 C 225.200 273.438,224.817 273.200,222.000 273.200 C 219.894 273.200,219.231 273.058,219.043 272.567 C 218.520 271.205,218.773 181.678,219.300 181.465 C 220.275 181.072,227.552 181.199,227.808 181.613 M212.000 283.812 C 212.000 286.611,209.074 287.709,205.545 286.235 C 204.380 285.748,204.086 285.748,203.420 286.235 C 200.688 288.233,196.109 286.382,196.575 283.468 C 196.929 281.250,197.114 281.182,202.481 281.299 C 206.364 281.383,207.275 281.289,207.818 280.749 C 209.093 279.482,212.000 281.611,212.000 283.812 M185.520 281.680 C 186.301 282.461,186.106 285.094,185.200 286.000 C 184.066 287.134,180.217 287.152,179.614 286.026 C 179.029 284.932,179.089 281.711,179.700 281.465 C 180.725 281.051,185.051 281.211,185.520 281.680 M195.120 281.680 C 195.741 282.301,195.718 285.618,195.087 286.418 C 194.488 287.177,190.164 287.434,189.351 286.759 C 188.632 286.162,188.589 281.752,189.300 281.465 C 190.325 281.051,194.651 281.211,195.120 281.680 M221.520 281.680 C 222.100 282.260,222.146 284.364,221.610 285.774 C 221.084 287.158,216.915 287.315,215.600 286.000 C 214.556 284.956,214.493 282.218,215.500 281.632 C 216.481 281.061,220.936 281.096,221.520 281.680 M201.835 296.838 C 202.429 297.495,202.612 298.377,202.677 300.903 C 202.778 304.771,202.795 304.786,207.020 304.794 C 210.519 304.801,211.200 305.128,211.200 306.804 C 211.200 308.862,210.412 309.352,207.560 309.067 C 203.262 308.637,203.014 308.917,202.932 314.277 C 202.853 319.484,202.514 320.400,200.666 320.400 C 198.582 320.400,198.401 319.937,198.394 314.620 C 198.386 308.611,198.521 308.811,194.533 308.891 C 191.052 308.960,189.194 308.262,189.206 306.891 C 189.220 305.272,189.841 305.006,194.084 304.800 L 198.200 304.600 198.400 300.800 C 198.660 295.858,199.779 294.567,201.835 296.838 " stroke="none" fill="#ddbda6" fill-rule="evenodd"></path><path id="path1" d="M41.600 0.400 C 41.600 0.640,40.000 0.800,37.600 0.800 C 33.867 0.800,33.600 0.853,33.600 1.600 C 33.600 2.252,33.333 2.400,32.163 2.400 C 31.062 2.400,30.676 2.587,30.516 3.200 C 30.352 3.827,29.970 4.000,28.753 4.000 C 27.467 4.000,27.200 4.137,27.200 4.800 C 27.200 5.448,26.933 5.600,25.800 5.600 C 24.667 5.600,24.400 5.752,24.400 6.400 C 24.400 7.067,24.133 7.200,22.800 7.200 C 21.238 7.200,21.200 7.233,21.200 8.600 C 21.200 9.967,21.162 10.000,19.600 10.000 C 18.267 10.000,18.000 10.133,18.000 10.800 C 18.000 11.265,17.733 11.600,17.363 11.600 C 17.012 11.600,16.635 11.943,16.526 12.363 C 16.416 12.783,15.983 13.216,15.563 13.326 C 15.143 13.435,14.800 13.791,14.800 14.116 C 14.800 14.441,14.440 14.801,14.000 14.916 C 13.560 15.031,13.200 15.391,13.200 15.716 C 13.200 16.041,12.840 16.401,12.400 16.516 C 11.960 16.631,11.600 17.012,11.600 17.363 C 11.600 17.733,11.265 18.000,10.800 18.000 C 10.133 18.000,10.000 18.267,10.000 19.600 C 10.000 21.162,9.967 21.200,8.600 21.200 C 7.233 21.200,7.200 21.238,7.200 22.800 C 7.200 24.133,7.067 24.400,6.400 24.400 C 5.752 24.400,5.600 24.667,5.600 25.800 C 5.600 26.933,5.448 27.200,4.800 27.200 C 4.137 27.200,4.000 27.467,4.000 28.753 C 4.000 29.970,3.827 30.352,3.200 30.516 C 2.587 30.676,2.400 31.062,2.400 32.163 C 2.400 33.333,2.252 33.600,1.600 33.600 C 0.853 33.600,0.800 33.867,0.800 37.600 C 0.800 40.000,0.640 41.600,0.400 41.600 C 0.134 41.600,0.000 94.667,0.000 200.000 C 0.000 305.333,0.134 358.400,0.400 358.400 C 0.640 358.400,0.800 360.000,0.800 362.400 C 0.800 366.133,0.853 366.400,1.600 366.400 C 2.252 366.400,2.400 366.667,2.400 367.837 C 2.400 368.938,2.587 369.324,3.200 369.484 C 3.827 369.648,4.000 370.030,4.000 371.247 C 4.000 372.533,4.137 372.800,4.800 372.800 C 5.448 372.800,5.600 373.067,5.600 374.200 C 5.600 375.333,5.752 375.600,6.400 375.600 C 7.067 375.600,7.200 375.867,7.200 377.200 C 7.200 378.762,7.233 378.800,8.600 378.800 C 9.967 378.800,10.000 378.838,10.000 380.400 C 10.000 381.733,10.133 382.000,10.800 382.000 C 11.265 382.000,11.600 382.267,11.600 382.637 C 11.600 382.988,11.960 383.369,12.400 383.484 C 12.840 383.599,13.200 383.959,13.200 384.284 C 13.200 384.609,13.560 384.969,14.000 385.084 C 14.440 385.199,14.800 385.559,14.800 385.884 C 14.800 386.209,15.160 386.569,15.600 386.684 C 16.040 386.799,16.400 387.159,16.400 387.484 C 16.400 387.809,16.760 388.169,17.200 388.284 C 17.643 388.400,18.000 388.830,18.000 389.247 C 18.000 389.859,18.300 390.000,19.600 390.000 C 21.162 390.000,21.200 390.033,21.200 391.400 C 21.200 392.767,21.238 392.800,22.800 392.800 C 24.133 392.800,24.400 392.933,24.400 393.600 C 24.400 394.248,24.667 394.400,25.800 394.400 C 26.933 394.400,27.200 394.552,27.200 395.200 C 27.200 395.863,27.467 396.000,28.753 396.000 C 29.970 396.000,30.352 396.173,30.516 396.800 C 30.676 397.413,31.062 397.600,32.163 397.600 C 33.333 397.600,33.600 397.748,33.600 398.400 C 33.600 399.147,33.867 399.200,37.600 399.200 C 40.000 399.200,41.600 399.360,41.600 399.600 C 41.600 399.866,94.667 400.000,200.000 400.000 C 305.333 400.000,358.400 399.866,358.400 399.600 C 358.400 399.360,360.000 399.200,362.400 399.200 C 366.133 399.200,366.400 399.147,366.400 398.400 C 366.400 397.748,366.667 397.600,367.837 397.600 C 368.938 397.600,369.324 397.413,369.484 396.800 C 369.648 396.173,370.030 396.000,371.247 396.000 C 372.533 396.000,372.800 395.863,372.800 395.200 C 372.800 394.552,373.067 394.400,374.200 394.400 C 375.333 394.400,375.600 394.248,375.600 393.600 C 375.600 392.933,375.867 392.800,377.200 392.800 C 378.762 392.800,378.800 392.767,378.800 391.400 C 378.800 390.033,378.838 390.000,380.400 390.000 C 381.700 390.000,382.000 389.859,382.000 389.247 C 382.000 388.830,382.357 388.400,382.800 388.284 C 383.240 388.169,383.600 387.809,383.600 387.484 C 383.600 387.159,383.960 386.799,384.400 386.684 C 384.840 386.569,385.200 386.209,385.200 385.884 C 385.200 385.559,385.560 385.199,386.000 385.084 C 386.440 384.969,386.800 384.609,386.800 384.284 C 386.800 383.959,387.160 383.599,387.600 383.484 C 388.040 383.369,388.400 382.988,388.400 382.637 C 388.400 382.267,388.735 382.000,389.200 382.000 C 389.867 382.000,390.000 381.733,390.000 380.400 C 390.000 378.838,390.033 378.800,391.400 378.800 C 392.767 378.800,392.800 378.762,392.800 377.200 C 392.800 375.867,392.933 375.600,393.600 375.600 C 394.248 375.600,394.400 375.333,394.400 374.200 C 394.400 373.067,394.552 372.800,395.200 372.800 C 395.863 372.800,396.000 372.533,396.000 371.247 C 396.000 370.030,396.173 369.648,396.800 369.484 C 397.413 369.324,397.600 368.938,397.600 367.837 C 397.600 366.667,397.748 366.400,398.400 366.400 C 399.147 366.400,399.200 366.133,399.200 362.400 C 399.200 360.000,399.360 358.400,399.600 358.400 C 399.866 358.400,400.000 305.333,400.000 200.000 C 400.000 94.667,399.866 41.600,399.600 41.600 C 399.360 41.600,399.200 40.000,399.200 37.600 C 399.200 33.867,399.147 33.600,398.400 33.600 C 397.748 33.600,397.600 33.333,397.600 32.163 C 397.600 31.062,397.413 30.676,396.800 30.516 C 396.173 30.352,396.000 29.970,396.000 28.753 C 396.000 27.467,395.863 27.200,395.200 27.200 C 394.552 27.200,394.400 26.933,394.400 25.800 C 394.400 24.667,394.248 24.400,393.600 24.400 C 392.933 24.400,392.800 24.133,392.800 22.800 C 392.800 21.238,392.767 21.200,391.400 21.200 C 390.033 21.200,390.000 21.162,390.000 19.600 C 390.000 18.300,389.859 18.000,389.247 18.000 C 388.830 18.000,388.400 17.643,388.284 17.200 C 388.169 16.760,387.809 16.400,387.484 16.400 C 387.159 16.400,386.799 16.040,386.684 15.600 C 386.569 15.160,386.209 14.800,385.884 14.800 C 385.559 14.800,385.199 14.440,385.084 14.000 C 384.969 13.560,384.609 13.200,384.284 13.200 C 383.959 13.200,383.599 12.840,383.484 12.400 C 383.369 11.960,382.988 11.600,382.637 11.600 C 382.267 11.600,382.000 11.265,382.000 10.800 C 382.000 10.133,381.733 10.000,380.400 10.000 C 378.838 10.000,378.800 9.967,378.800 8.600 C 378.800 7.233,378.762 7.200,377.200 7.200 C 375.867 7.200,375.600 7.067,375.600 6.400 C 375.600 5.752,375.333 5.600,374.200 5.600 C 373.067 5.600,372.800 5.448,372.800 4.800 C 372.800 4.137,372.533 4.000,371.247 4.000 C 370.030 4.000,369.648 3.827,369.484 3.200 C 369.324 2.587,368.938 2.400,367.837 2.400 C 366.667 2.400,366.400 2.252,366.400 1.600 C 366.400 0.853,366.133 0.800,362.400 0.800 C 360.000 0.800,358.400 0.640,358.400 0.400 C 358.400 0.134,305.333 0.000,200.000 0.000 C 94.667 0.000,41.600 0.134,41.600 0.400 M110.800 67.000 C 110.800 67.550,110.440 68.360,110.000 68.800 C 109.560 69.240,109.200 69.938,109.200 70.351 C 109.200 70.764,108.930 71.326,108.600 71.600 C 107.719 72.331,107.708 91.061,108.587 92.224 C 108.910 92.651,109.180 93.363,109.187 93.806 C 109.194 94.249,109.533 95.239,109.939 96.006 C 110.406 96.886,110.778 98.720,110.948 100.978 C 111.118 103.245,111.433 104.795,111.808 105.209 C 112.134 105.569,112.400 106.226,112.400 106.670 C 112.400 107.113,112.760 107.802,113.200 108.200 C 113.640 108.598,114.000 109.318,114.000 109.800 C 114.000 110.282,114.356 110.999,114.792 111.393 C 115.228 111.787,115.698 112.717,115.838 113.459 C 116.183 115.302,116.661 115.466,116.965 113.848 C 117.103 113.108,117.573 112.092,118.008 111.590 C 118.444 111.088,118.800 110.253,118.800 109.734 C 118.800 109.158,119.534 108.011,120.683 106.795 L 122.565 104.800 125.198 104.800 C 127.812 104.800,127.842 104.813,129.675 106.700 C 131.893 108.983,134.162 112.601,133.864 113.377 C 133.539 114.224,132.274 113.703,131.537 112.419 C 131.138 111.725,130.411 111.178,129.670 111.015 C 129.002 110.869,128.241 110.490,127.979 110.174 C 126.905 108.880,121.857 110.595,120.512 112.711 C 120.131 113.310,119.590 113.944,119.310 114.120 C 118.350 114.722,118.611 124.671,119.600 125.200 C 120.040 125.435,120.400 125.958,120.400 126.360 C 120.400 126.763,120.760 127.550,121.200 128.109 C 121.710 128.757,122.000 129.732,122.000 130.796 C 122.000 132.095,122.299 132.835,123.348 134.133 C 124.491 135.547,124.727 136.200,124.896 138.431 C 125.062 140.603,125.338 141.405,126.484 143.035 C 127.450 144.410,127.959 145.665,128.158 147.169 C 128.316 148.357,128.705 149.700,129.022 150.153 C 129.340 150.607,129.601 151.343,129.603 151.789 C 129.604 152.235,129.963 153.140,130.400 153.800 C 130.996 154.701,131.195 155.679,131.197 157.720 C 131.199 159.450,131.438 160.900,131.854 161.703 C 132.213 162.399,132.654 164.282,132.835 165.889 C 133.015 167.496,133.441 169.209,133.781 169.695 C 134.728 171.047,134.632 176.797,133.629 178.721 C 133.205 179.534,132.294 181.415,131.604 182.900 C 130.914 184.385,130.202 185.600,130.021 185.600 C 129.840 185.600,128.957 186.357,128.059 187.283 C 125.727 189.686,120.409 188.727,119.063 185.661 C 118.807 185.077,118.274 184.123,117.879 183.540 C 116.853 182.026,116.833 179.456,117.839 178.316 C 118.284 177.812,118.858 176.905,119.115 176.300 C 120.393 173.294,127.589 175.768,127.551 179.200 C 127.533 180.860,127.504 180.910,127.183 179.834 C 126.118 176.273,120.000 178.169,120.000 182.060 C 120.000 184.718,123.105 186.934,124.748 185.447 C 125.141 185.091,125.945 184.800,126.534 184.800 C 127.209 184.800,127.937 184.401,128.503 183.722 C 128.996 183.129,129.805 182.220,130.300 181.703 C 131.450 180.502,131.716 165.635,130.613 164.176 C 130.290 163.749,130.020 163.023,130.013 162.562 C 130.006 162.101,129.640 161.398,129.200 161.000 C 128.760 160.602,128.400 159.925,128.400 159.496 C 128.400 159.067,127.947 158.150,127.394 157.458 C 126.841 156.766,126.230 156.003,126.037 155.762 C 125.843 155.522,125.401 154.776,125.054 154.105 C 124.086 152.233,120.054 148.845,118.210 148.354 C 117.325 148.118,116.330 147.689,116.000 147.400 C 113.809 145.479,106.098 144.663,104.427 146.175 C 104.048 146.519,103.374 146.800,102.930 146.800 C 102.487 146.800,101.817 147.139,101.442 147.554 C 101.066 147.969,100.228 148.414,99.580 148.544 C 98.872 148.686,98.400 149.032,98.400 149.410 C 98.400 149.757,97.725 150.659,96.900 151.415 L 95.400 152.789 95.300 157.294 C 95.141 164.510,96.992 166.881,102.845 166.957 C 105.139 166.987,106.173 166.850,106.294 166.500 C 106.406 166.175,106.059 166.000,105.300 166.000 C 102.056 166.000,100.016 158.428,102.604 155.996 C 103.842 154.833,107.315 154.316,111.517 154.669 C 115.058 154.966,118.035 157.316,118.579 160.244 C 118.738 161.100,119.148 162.112,119.491 162.494 C 120.336 163.437,120.288 167.818,119.422 168.776 C 119.080 169.154,118.787 169.899,118.772 170.431 C 118.711 172.531,114.271 178.000,112.627 178.000 C 112.145 178.000,111.070 178.709,110.200 179.600 C 108.896 180.935,108.375 181.200,107.050 181.200 C 106.177 181.200,105.170 181.465,104.813 181.788 C 102.221 184.134,91.073 185.713,89.339 183.979 C 88.715 183.355,89.176 181.662,90.044 181.386 C 90.460 181.254,91.286 180.509,91.880 179.731 C 92.903 178.390,93.044 178.332,94.580 178.628 C 100.191 179.710,108.416 178.722,110.194 176.754 C 110.966 175.899,111.968 175.200,112.420 175.200 C 113.696 175.200,116.000 173.161,116.000 172.031 C 116.000 171.499,116.299 170.732,116.665 170.328 C 117.202 169.735,117.314 168.847,117.249 165.697 L 117.169 161.800 115.300 159.900 C 113.483 158.054,111.966 157.484,111.383 158.428 C 111.136 158.827,111.576 159.441,113.300 161.103 C 114.356 162.121,114.148 163.482,112.653 165.333 C 111.912 166.250,111.110 167.378,110.871 167.840 C 109.871 169.772,96.391 169.516,95.371 167.545 C 95.050 166.923,94.250 166.136,93.595 165.798 C 92.892 165.434,92.006 164.396,91.433 163.266 C 90.899 162.212,90.178 161.114,89.831 160.826 C 88.823 159.989,88.939 154.129,89.986 153.015 C 90.419 152.554,91.195 151.378,91.712 150.401 C 92.321 149.250,92.995 148.545,93.626 148.401 C 94.220 148.265,94.823 147.676,95.172 146.889 C 95.678 145.750,95.929 145.600,97.328 145.600 C 98.200 145.600,99.652 145.259,100.556 144.843 C 104.213 143.159,109.263 142.463,111.054 143.398 C 111.684 143.726,112.835 143.996,113.611 143.998 C 114.548 143.999,115.264 144.283,115.742 144.841 C 116.338 145.537,116.750 145.640,118.131 145.441 C 119.685 145.218,119.909 145.312,121.370 146.801 C 123.110 148.572,124.800 148.969,124.800 147.605 C 124.800 147.110,124.186 146.422,123.174 145.784 C 121.837 144.940,121.571 144.566,121.674 143.680 C 121.781 142.766,121.597 142.537,120.448 142.165 C 119.704 141.923,118.894 141.350,118.648 140.890 C 118.147 139.955,116.021 138.324,114.200 137.476 C 113.540 137.169,112.394 136.350,111.653 135.655 C 110.913 134.960,109.923 134.293,109.453 134.171 C 108.984 134.050,108.330 133.377,108.000 132.676 C 107.572 131.766,107.056 131.342,106.200 131.197 C 105.295 131.045,104.966 130.750,104.862 129.997 C 104.672 128.631,104.133 128.070,102.871 127.924 C 101.884 127.810,101.784 127.628,101.599 125.600 C 101.489 124.390,101.084 122.955,100.699 122.411 C 100.315 121.867,100.000 121.040,100.000 120.573 C 100.000 120.106,99.640 119.398,99.200 119.000 C 98.471 118.340,98.400 117.768,98.400 112.564 C 98.400 106.087,98.510 105.655,100.764 103.267 C 102.647 101.271,102.650 101.274,102.948 106.000 C 103.066 107.870,103.428 110.210,103.753 111.200 C 104.078 112.190,104.461 114.217,104.604 115.704 C 104.747 117.191,105.120 118.663,105.432 118.975 C 105.745 119.287,106.000 119.714,106.000 119.923 C 106.000 120.132,106.371 120.549,106.825 120.851 C 107.351 121.201,107.731 122.002,107.872 123.057 C 108.037 124.287,108.337 124.825,109.036 125.144 C 109.554 125.380,110.230 126.164,110.538 126.886 C 111.323 128.727,118.601 136.000,119.658 136.000 C 120.327 136.000,120.430 135.105,119.860 134.236 C 119.526 133.725,119.126 132.199,118.973 130.845 C 118.820 129.490,118.561 128.300,118.398 128.199 C 117.864 127.869,116.092 123.833,115.837 122.365 C 115.700 121.576,114.961 120.197,114.194 119.302 C 113.427 118.406,112.800 117.414,112.800 117.098 C 112.800 116.782,112.440 116.198,112.000 115.800 C 111.442 115.295,111.200 114.568,111.200 113.400 C 111.200 112.232,110.958 111.505,110.400 111.000 C 109.960 110.602,109.600 109.966,109.600 109.587 C 109.600 109.208,109.350 108.690,109.044 108.437 C 108.739 108.183,108.286 107.171,108.039 106.188 C 107.791 105.205,107.431 104.400,107.238 104.400 C 107.045 104.400,106.763 103.905,106.612 103.300 C 106.461 102.695,106.065 101.898,105.733 101.529 C 105.400 101.159,104.955 100.088,104.744 99.148 C 104.532 98.207,103.739 96.416,102.980 95.167 L 101.600 92.895 101.600 84.270 C 101.600 76.322,101.658 75.604,102.343 75.123 C 102.751 74.835,103.222 74.150,103.390 73.600 C 103.558 73.050,103.928 72.330,104.214 72.000 C 104.499 71.670,104.793 70.861,104.867 70.202 C 104.974 69.237,105.225 68.965,106.157 68.802 C 107.280 68.606,107.709 68.156,108.159 66.700 C 108.531 65.495,110.800 65.753,110.800 67.000 M291.880 67.855 C 292.716 68.875,293.805 70.161,294.300 70.713 C 294.817 71.290,295.204 72.245,295.209 72.958 C 295.214 73.641,295.570 74.650,296.000 75.200 C 296.430 75.750,296.786 76.546,296.791 76.969 C 296.796 77.391,297.115 78.085,297.500 78.509 C 298.660 79.790,298.761 88.014,297.634 89.447 C 297.175 90.031,296.800 90.850,296.800 91.268 C 296.800 91.686,296.535 92.433,296.211 92.927 C 295.887 93.422,295.498 95.154,295.348 96.777 C 295.156 98.835,294.851 99.949,294.337 100.463 C 293.932 100.868,293.600 101.432,293.600 101.715 C 293.600 101.999,293.240 102.937,292.800 103.800 C 292.360 104.663,292.000 105.836,292.000 106.406 C 292.000 107.059,291.499 107.928,290.647 108.754 C 289.586 109.783,289.235 110.509,289.021 112.123 C 288.823 113.620,288.374 114.637,287.374 115.858 C 286.618 116.780,286.000 117.723,286.000 117.953 C 286.000 118.183,285.640 118.565,285.200 118.800 C 284.552 119.147,284.400 119.638,284.400 121.378 C 284.400 123.284,284.217 123.759,282.794 125.560 C 281.314 127.433,281.195 127.765,281.279 129.792 C 281.366 131.856,281.277 132.087,279.832 133.567 C 278.199 135.240,278.054 136.691,279.568 136.210 C 280.508 135.912,285.692 130.944,286.340 129.720 C 286.597 129.236,287.300 128.605,287.903 128.318 C 288.710 127.933,289.033 127.451,289.125 126.497 C 289.194 125.784,289.410 125.200,289.605 125.200 C 290.652 125.200,292.396 122.542,292.398 120.943 C 292.399 119.969,292.611 119.205,292.911 119.090 C 294.560 118.457,295.575 114.746,295.617 109.200 C 295.674 101.796,295.789 101.213,297.125 101.570 C 297.907 101.779,298.248 102.195,298.451 103.189 C 298.602 103.924,299.012 104.687,299.362 104.883 C 299.764 105.107,300.003 105.788,300.009 106.720 C 300.014 107.534,300.374 108.985,300.809 109.944 C 301.758 112.036,301.747 111.796,300.935 112.608 C 300.446 113.097,300.207 114.304,300.035 117.166 C 299.857 120.115,299.630 121.228,299.100 121.758 C 298.630 122.228,298.400 123.081,298.400 124.357 C 298.400 126.084,298.254 126.380,296.800 127.600 C 295.920 128.338,295.200 129.274,295.200 129.680 C 295.200 130.102,294.730 130.621,294.100 130.893 C 293.495 131.155,292.438 131.928,291.752 132.611 C 291.066 133.294,289.452 134.551,288.167 135.404 C 286.881 136.258,285.301 137.461,284.656 138.078 C 284.010 138.695,283.076 139.200,282.580 139.200 C 281.974 139.200,281.408 139.659,280.853 140.600 C 280.399 141.370,279.816 142.000,279.557 142.000 C 278.556 142.000,275.157 146.117,275.281 147.180 C 275.450 148.625,277.439 148.877,277.955 147.518 C 278.401 146.346,279.646 145.729,282.171 145.430 C 283.255 145.301,284.479 144.890,284.892 144.516 C 286.040 143.478,296.549 143.482,298.135 144.521 C 298.741 144.918,300.139 145.349,301.242 145.480 C 302.910 145.677,303.421 145.943,304.272 147.059 C 304.881 147.858,305.648 148.400,306.167 148.400 C 307.288 148.400,308.000 149.121,308.000 150.256 C 308.000 150.749,308.174 151.260,308.387 151.392 C 310.962 152.984,311.269 162.400,308.745 162.400 C 308.572 162.400,308.249 163.075,308.026 163.900 C 307.733 164.985,307.288 165.547,306.418 165.930 C 305.756 166.222,304.985 166.942,304.704 167.530 C 304.235 168.510,303.969 168.610,301.531 168.717 C 299.809 168.793,298.698 169.041,298.385 169.417 C 297.775 170.154,296.716 170.148,294.236 169.396 C 293.156 169.068,291.666 168.800,290.924 168.800 C 290.000 168.800,289.497 168.579,289.328 168.100 C 289.192 167.715,288.750 167.031,288.345 166.579 C 287.099 165.189,286.304 161.969,287.014 161.185 C 287.336 160.828,287.600 160.348,287.600 160.117 C 287.600 159.887,287.868 159.476,288.196 159.204 C 288.981 158.552,288.597 158.000,287.358 158.000 C 286.785 158.000,285.936 158.466,285.353 159.100 C 284.798 159.705,284.016 160.560,283.616 161.000 C 283.215 161.440,282.771 162.189,282.628 162.664 C 282.486 163.139,282.106 163.746,281.785 164.013 C 280.980 164.681,280.983 168.342,281.789 168.651 C 282.113 168.776,282.830 169.831,283.381 170.996 C 284.526 173.416,286.414 175.200,287.831 175.200 C 288.364 175.200,288.800 175.386,288.800 175.613 C 288.800 176.751,291.248 178.400,292.937 178.400 C 293.878 178.400,294.996 178.664,295.424 178.987 C 296.352 179.690,304.109 179.843,305.820 179.192 C 307.965 178.377,312.209 182.762,310.718 184.253 C 309.479 185.492,298.959 184.381,295.874 182.685 C 294.388 181.868,292.765 181.200,292.267 181.200 C 291.740 181.200,290.718 180.540,289.820 179.620 C 288.601 178.372,287.934 178.015,286.646 177.920 C 285.256 177.818,284.955 177.630,284.611 176.645 C 284.389 176.009,283.620 174.849,282.903 174.067 C 282.187 173.284,281.594 172.364,281.587 172.022 C 281.581 171.680,281.134 170.500,280.595 169.400 C 279.524 167.215,279.530 162.492,280.606 161.200 C 280.881 160.870,281.235 160.174,281.394 159.653 C 281.554 159.132,282.520 157.882,283.542 156.874 L 285.400 155.042 290.273 154.880 L 295.146 154.719 296.773 156.027 L 298.400 157.334 298.400 160.477 C 298.400 163.354,298.324 163.653,297.500 164.009 C 297.005 164.223,296.330 164.557,296.000 164.751 C 295.670 164.944,294.680 165.413,293.800 165.793 L 292.201 166.482 294.000 167.423 C 295.942 168.438,297.588 168.652,298.263 167.977 C 298.495 167.745,299.656 167.046,300.843 166.425 C 305.616 163.926,306.792 154.183,302.648 151.468 C 302.073 151.091,301.601 150.351,301.527 149.709 C 301.428 148.848,301.164 148.573,300.342 148.477 C 299.759 148.410,298.967 148.005,298.580 147.577 C 298.193 147.150,297.448 146.800,296.925 146.800 C 296.402 146.800,295.395 146.558,294.687 146.263 C 292.242 145.242,290.429 145.114,288.260 145.807 C 281.504 147.968,279.532 148.820,278.529 150.011 C 277.987 150.656,277.063 151.414,276.476 151.695 C 275.890 151.976,275.341 152.562,275.257 152.998 C 275.173 153.433,274.428 154.466,273.600 155.294 C 272.664 156.230,271.932 157.448,271.662 158.518 C 271.421 159.475,270.696 160.761,270.026 161.419 L 268.822 162.600 268.811 171.851 C 268.802 179.596,268.898 181.183,269.400 181.600 C 269.730 181.874,270.000 182.331,270.000 182.616 C 270.000 183.264,272.432 184.800,273.458 184.800 C 273.878 184.800,274.530 185.160,274.907 185.600 C 276.798 187.808,280.005 185.388,279.990 181.764 C 279.981 179.463,279.943 179.381,278.574 178.700 C 276.809 177.822,273.200 177.739,273.200 178.576 C 273.200 178.893,273.020 179.264,272.800 179.400 C 272.567 179.544,272.400 179.137,272.400 178.424 C 272.400 177.632,272.601 177.200,272.969 177.200 C 273.282 177.200,274.084 176.741,274.750 176.180 C 276.563 174.655,280.936 174.846,281.123 176.458 C 281.190 177.041,281.595 177.833,282.023 178.220 C 283.098 179.194,283.108 182.492,282.039 183.561 C 281.621 183.979,281.160 184.696,281.015 185.154 C 280.447 186.941,277.428 188.856,275.092 188.911 C 272.557 188.970,268.888 186.017,269.137 184.117 C 269.210 183.559,269.006 183.100,268.618 182.952 C 266.153 182.006,264.519 170.247,266.402 167.000 C 266.785 166.340,267.209 164.792,267.345 163.561 C 267.481 162.329,267.864 160.551,268.196 159.610 C 268.528 158.669,268.800 156.776,268.800 155.404 C 268.800 153.540,268.996 152.658,269.575 151.922 C 270.002 151.380,270.469 150.463,270.614 149.885 C 270.760 149.306,271.131 148.623,271.439 148.367 C 271.812 148.058,272.000 147.055,272.000 145.375 C 272.000 143.985,272.187 142.731,272.416 142.590 C 273.422 141.968,274.862 138.989,275.083 137.073 C 275.214 135.933,275.654 134.571,276.061 134.046 C 276.467 133.521,276.800 132.874,276.800 132.608 C 276.800 132.342,277.160 131.798,277.600 131.400 C 278.231 130.829,278.400 130.168,278.400 128.270 C 278.400 126.539,278.597 125.645,279.100 125.089 C 279.652 124.478,279.801 123.582,279.806 120.857 C 279.810 118.956,279.940 117.200,280.095 116.956 C 280.331 116.586,279.472 114.360,278.029 111.600 C 277.788 111.139,276.772 110.974,273.641 110.886 L 269.567 110.772 268.128 112.375 C 267.336 113.257,266.533 113.882,266.344 113.765 C 265.818 113.440,265.935 110.444,266.500 109.768 C 270.058 105.510,271.146 104.806,274.169 104.803 C 276.520 104.800,278.000 105.487,278.000 106.581 C 278.000 106.832,278.720 107.741,279.600 108.600 C 281.027 109.994,281.200 110.370,281.200 112.081 C 281.200 115.973,284.037 116.952,284.430 113.196 C 284.556 111.988,284.960 110.460,285.327 109.800 C 285.695 109.140,285.996 108.265,285.998 107.854 C 286.000 107.167,286.306 106.473,288.440 102.321 C 289.016 101.199,289.201 99.991,289.203 97.321 C 289.205 94.480,289.359 93.568,290.000 92.600 C 290.629 91.651,290.795 90.720,290.797 88.149 C 290.799 85.750,290.957 84.768,291.400 84.400 C 291.826 84.046,292.000 83.110,292.000 81.165 C 292.000 78.490,291.622 77.148,289.961 73.921 C 289.398 72.827,289.200 71.602,289.200 69.221 C 289.200 65.337,289.635 65.115,291.880 67.855 M161.000 157.200 C 161.524 157.779,162.232 158.000,163.562 158.000 C 165.188 158.000,165.599 158.196,167.119 159.700 C 171.174 163.710,172.000 165.223,172.000 168.643 C 172.000 170.248,172.284 171.740,172.819 172.949 L 173.637 174.800 175.819 174.800 L 178.000 174.800 178.046 172.300 C 178.108 168.921,178.019 168.305,177.363 167.569 C 176.108 166.160,176.861 163.956,178.241 165.000 C 179.232 165.750,181.639 165.757,182.624 165.013 C 184.544 163.560,184.945 166.821,183.389 171.231 C 182.652 173.321,183.178 173.666,186.000 172.943 C 189.146 172.136,190.200 170.229,188.400 168.600 C 187.960 168.202,187.600 167.511,187.600 167.064 C 187.600 166.148,186.126 164.400,185.354 164.400 C 184.571 164.400,184.278 163.629,184.815 162.982 C 185.184 162.538,186.329 162.400,189.662 162.400 C 193.468 162.400,194.053 162.311,194.241 161.700 C 194.796 159.905,195.009 159.803,198.443 159.684 C 203.291 159.517,204.285 159.764,204.603 161.213 L 204.864 162.400 208.755 162.400 C 213.947 162.400,214.636 162.839,213.045 165.135 C 210.323 169.062,210.316 171.578,213.024 172.811 C 215.877 174.111,218.079 173.439,216.416 171.776 C 216.205 171.565,215.980 170.138,215.916 168.603 L 215.800 165.814 218.800 165.407 C 220.450 165.183,222.025 164.854,222.300 164.676 C 222.589 164.489,222.800 164.532,222.800 164.776 C 222.800 165.009,222.620 165.200,222.400 165.200 C 222.180 165.200,221.996 166.145,221.990 167.300 C 221.985 168.455,221.790 170.120,221.558 171.000 C 221.325 171.880,221.037 173.104,220.919 173.719 L 220.704 174.839 223.452 174.719 L 226.200 174.600 226.439 172.099 C 226.571 170.723,226.953 169.283,227.289 168.899 C 227.624 168.514,228.023 167.480,228.175 166.600 C 228.941 162.170,232.546 158.025,235.646 158.009 C 236.875 158.003,237.832 157.733,238.509 157.200 C 239.903 156.103,243.344 156.103,245.000 157.200 C 245.660 157.637,246.565 157.996,247.010 157.997 C 248.909 158.004,251.462 161.554,251.757 164.600 C 252.267 169.854,251.700 172.000,249.800 172.000 C 249.304 172.000,248.674 172.270,248.400 172.600 C 248.126 172.930,247.406 173.200,246.800 173.200 C 246.194 173.200,245.474 172.930,245.200 172.600 C 244.926 172.270,244.218 172.000,243.627 172.000 C 240.675 172.000,239.796 168.037,242.163 165.400 C 243.940 163.420,244.045 162.400,242.471 162.400 C 241.068 162.400,237.200 166.093,237.200 167.433 C 237.200 167.911,236.909 168.544,236.552 168.840 C 236.032 169.271,235.953 169.840,236.150 171.723 C 236.469 174.774,236.491 174.799,238.924 174.803 C 240.066 174.805,241.952 174.921,243.116 175.061 L 245.233 175.315 245.116 178.158 L 245.000 181.000 242.200 181.200 L 239.400 181.400 239.279 183.727 C 239.171 185.815,239.301 186.269,240.539 188.134 C 241.542 189.645,241.999 190.869,242.210 192.607 C 242.394 194.129,242.773 195.260,243.250 195.716 C 243.663 196.109,244.000 196.762,244.000 197.167 C 244.000 197.571,244.253 198.112,244.563 198.369 C 244.872 198.626,245.252 199.953,245.407 201.318 C 245.562 202.683,245.849 203.999,246.045 204.242 C 246.995 205.420,248.401 208.561,248.409 209.521 C 248.414 210.115,248.774 211.385,249.209 212.344 C 249.644 213.303,250.000 214.331,250.000 214.630 C 250.000 214.928,250.360 215.365,250.800 215.600 C 251.460 215.953,251.600 216.438,251.600 218.360 C 251.600 220.086,251.808 220.956,252.400 221.709 C 252.840 222.269,253.200 223.128,253.200 223.619 C 253.200 224.110,253.488 224.723,253.841 224.980 C 254.223 225.260,254.553 226.245,254.660 227.424 C 254.758 228.511,255.178 230.120,255.594 231.000 C 256.009 231.880,256.457 232.870,256.590 233.200 C 256.723 233.530,257.092 234.250,257.410 234.800 C 257.728 235.350,257.991 236.665,257.994 237.722 C 258.000 239.496,258.768 241.826,260.216 244.462 C 260.537 245.046,260.800 246.313,260.800 247.277 C 260.800 248.242,261.160 249.737,261.600 250.600 C 262.040 251.463,262.401 252.536,262.403 252.985 C 262.404 253.433,262.763 254.340,263.200 255.000 C 263.637 255.660,263.996 256.565,263.997 257.011 C 263.999 257.457,264.308 258.261,264.684 258.798 C 265.175 259.499,265.439 260.987,265.621 264.071 C 265.760 266.434,266.072 268.605,266.314 268.896 C 268.128 271.082,268.020 283.523,266.164 286.172 C 265.854 286.615,265.600 287.819,265.600 288.848 C 265.600 290.472,265.422 290.873,264.243 291.909 C 263.496 292.564,262.766 293.476,262.620 293.936 C 262.475 294.395,261.285 295.831,259.978 297.127 C 258.670 298.422,257.600 299.685,257.600 299.932 C 257.600 300.179,257.105 300.693,256.500 301.074 C 255.895 301.454,254.812 302.353,254.093 303.070 C 253.375 303.787,251.935 304.862,250.893 305.459 C 249.852 306.055,248.678 306.871,248.284 307.272 C 247.891 307.672,247.207 308.000,246.765 308.000 C 246.322 308.000,245.320 308.622,244.537 309.382 C 243.561 310.330,242.592 310.842,241.451 311.013 C 240.363 311.176,239.256 311.736,238.250 312.631 C 237.404 313.384,236.309 314.000,235.818 314.000 C 235.326 314.000,234.598 314.360,234.200 314.800 C 233.802 315.240,233.099 315.599,232.638 315.598 C 232.177 315.597,230.527 316.241,228.972 317.030 C 226.996 318.031,225.393 318.531,223.653 318.689 C 218.957 319.114,216.436 324.132,220.383 325.195 C 221.254 325.430,222.074 325.797,222.207 326.011 C 222.339 326.225,222.809 326.400,223.251 326.400 C 226.158 326.400,228.025 331.202,226.371 334.427 C 226.038 335.078,175.630 335.363,174.984 334.717 C 173.628 333.361,174.840 326.800,176.447 326.800 C 176.902 326.800,177.731 326.440,178.291 326.000 C 178.850 325.560,179.648 325.200,180.064 325.200 C 181.087 325.200,181.660 323.534,181.346 321.473 C 180.982 319.090,180.621 318.800,178.013 318.800 C 176.232 318.800,175.563 318.622,175.000 318.000 C 174.602 317.560,173.882 317.200,173.400 317.200 C 172.918 317.200,172.198 316.840,171.800 316.400 C 171.348 315.900,170.568 315.600,169.722 315.600 C 168.341 315.600,165.760 314.484,164.046 313.145 C 163.521 312.735,162.784 312.400,162.408 312.400 C 162.032 312.400,161.398 312.040,161.000 311.600 C 160.602 311.160,159.876 310.800,159.387 310.800 C 158.898 310.800,158.274 310.530,158.000 310.200 C 157.726 309.870,157.178 309.600,156.782 309.600 C 156.386 309.600,155.527 309.150,154.873 308.600 C 154.219 308.050,153.300 307.600,152.830 307.600 C 152.360 307.600,151.867 307.318,151.734 306.973 C 151.602 306.628,150.033 305.185,148.247 303.766 C 142.984 299.584,141.251 297.990,140.960 297.069 C 140.809 296.591,140.351 295.965,139.943 295.677 C 139.534 295.390,139.199 294.940,139.198 294.677 C 139.197 294.415,138.567 293.515,137.798 292.678 C 137.029 291.840,136.400 290.999,136.400 290.808 C 136.400 290.618,135.977 289.953,135.460 289.331 C 134.739 288.463,134.465 287.529,134.285 285.320 C 134.156 283.737,133.859 282.083,133.625 281.647 C 132.967 280.417,133.092 273.157,133.800 271.462 C 134.198 270.509,134.400 268.674,134.400 266.009 C 134.400 262.487,134.499 261.908,135.200 261.307 C 135.640 260.930,136.000 260.219,136.000 259.726 C 136.000 259.233,136.360 257.916,136.800 256.800 C 137.240 255.684,137.600 254.459,137.600 254.079 C 137.600 253.699,137.960 252.716,138.400 251.896 C 138.937 250.894,139.200 249.639,139.200 248.081 C 139.200 246.805,139.403 245.557,139.652 245.308 C 140.592 244.368,142.375 238.608,142.390 236.463 C 142.396 235.728,142.760 234.669,143.200 234.109 C 143.640 233.550,144.000 232.816,144.000 232.478 C 144.000 232.140,144.264 231.571,144.587 231.215 C 144.909 230.858,145.297 229.494,145.447 228.183 C 145.600 226.846,146.045 225.381,146.460 224.846 C 146.867 224.321,147.206 223.601,147.213 223.246 C 147.220 222.891,147.490 222.251,147.813 221.824 C 148.171 221.350,148.400 220.150,148.400 218.746 C 148.400 216.989,148.570 216.322,149.121 215.923 C 150.041 215.256,151.600 210.629,151.600 208.566 C 151.600 207.415,151.993 206.406,153.057 204.826 C 154.024 203.390,154.579 202.047,154.708 200.831 C 154.814 199.824,155.135 198.730,155.420 198.400 C 155.705 198.070,156.062 197.303,156.213 196.695 C 156.365 196.087,156.775 195.430,157.123 195.235 C 157.570 194.985,157.806 194.107,157.924 192.261 C 158.045 190.353,158.295 189.457,158.845 188.959 C 159.260 188.583,159.600 187.966,159.600 187.587 C 159.600 187.208,159.846 186.694,160.146 186.445 C 160.891 185.827,161.327 182.435,160.751 181.741 C 160.470 181.403,159.453 181.200,158.031 181.200 C 155.193 181.200,154.800 180.804,154.800 177.944 C 154.800 175.133,154.909 175.058,159.106 174.972 C 163.148 174.890,163.003 175.028,162.988 171.266 C 162.976 168.278,161.149 163.600,159.995 163.600 C 159.814 163.600,159.397 163.497,159.069 163.371 C 158.059 162.984,157.844 164.722,158.618 167.001 L 159.327 169.087 158.216 170.543 C 157.450 171.548,156.788 172.000,156.084 172.000 C 155.522 172.000,154.725 172.306,154.311 172.680 C 153.610 173.315,153.475 173.316,152.280 172.699 C 151.576 172.335,150.568 171.984,150.041 171.919 C 149.513 171.853,148.955 171.530,148.799 171.200 C 148.644 170.870,148.186 169.913,147.781 169.073 C 147.137 167.737,147.111 167.387,147.576 166.273 C 147.869 165.573,148.196 164.280,148.304 163.400 C 148.537 161.499,151.609 158.000,153.045 158.000 C 153.522 158.000,154.336 157.646,154.856 157.213 C 156.205 156.089,159.987 156.081,161.000 157.200 M294.179 158.510 C 293.861 159.339,294.087 160.420,294.600 160.521 C 295.158 160.631,295.360 158.800,294.847 158.287 C 294.553 157.993,294.352 158.060,294.179 158.510 M107.958 161.500 C 107.730 163.110,108.312 165.702,108.829 165.382 C 109.490 164.974,109.283 161.200,108.600 161.200 C 108.270 161.200,107.981 161.335,107.958 161.500 M290.635 161.544 C 290.518 161.733,290.555 162.663,290.717 163.612 C 291.089 165.792,292.000 166.243,292.000 164.247 C 292.000 163.231,292.230 162.705,292.811 162.394 C 293.257 162.155,293.517 161.789,293.388 161.580 C 293.095 161.106,290.923 161.078,290.635 161.544 M203.451 165.249 C 203.093 165.760,202.800 166.458,202.800 166.800 C 202.800 167.142,202.518 167.824,202.174 168.316 C 200.528 170.665,202.619 172.498,206.181 171.830 C 207.548 171.574,207.665 171.451,207.479 170.474 C 207.096 168.456,206.124 166.342,205.112 165.330 L 204.102 164.320 203.451 165.249 M194.085 165.700 C 191.793 168.473,191.972 171.759,194.424 171.919 C 197.989 172.151,199.156 170.971,197.845 168.462 C 197.540 167.878,197.094 166.905,196.854 166.300 C 196.381 165.108,194.848 164.776,194.085 165.700 M209.848 181.086 C 209.179 181.755,209.588 272.292,210.263 272.851 C 211.215 273.640,216.304 273.598,216.810 272.798 C 217.258 272.089,217.341 182.008,216.894 181.400 C 216.574 180.964,210.251 180.682,209.848 181.086 M172.281 181.487 C 172.181 181.659,171.974 182.996,171.822 184.457 C 171.562 186.952,170.271 190.886,169.323 192.071 C 169.090 192.362,168.816 193.969,168.714 195.641 C 168.596 197.567,168.284 199.030,167.864 199.630 C 167.499 200.152,167.194 200.853,167.186 201.189 C 167.179 201.525,166.825 202.520,166.400 203.400 C 165.975 204.280,165.615 205.810,165.601 206.800 C 165.586 207.857,165.169 209.426,164.591 210.600 C 164.050 211.700,163.606 212.803,163.604 213.051 C 163.602 213.299,163.330 213.726,163.000 214.000 C 162.670 214.274,162.400 214.867,162.400 215.317 C 162.400 215.768,162.139 216.425,161.820 216.777 C 161.502 217.130,161.118 218.674,160.967 220.209 C 160.787 222.051,160.255 223.952,159.404 225.800 C 158.603 227.540,158.014 229.584,157.848 231.200 C 157.523 234.376,156.114 240.636,155.417 242.000 C 155.137 242.550,154.789 245.030,154.646 247.511 C 154.502 249.992,154.117 253.292,153.791 254.844 C 152.238 262.224,152.343 274.025,153.994 277.662 C 154.428 278.618,154.786 279.719,154.791 280.110 C 154.796 280.515,155.273 280.994,155.900 281.225 C 156.505 281.448,157.457 282.178,158.015 282.846 C 160.416 285.723,170.919 285.985,172.144 283.200 C 172.386 282.650,173.083 281.498,173.692 280.640 C 174.387 279.662,174.809 278.543,174.823 277.640 C 174.836 276.848,174.973 275.485,175.128 274.612 L 175.410 273.024 177.979 272.916 C 179.501 272.853,180.678 272.603,180.869 272.304 C 181.045 272.027,181.147 251.460,181.095 226.600 L 181.000 181.400 176.732 181.287 C 174.384 181.225,172.381 181.315,172.281 181.487 M183.197 181.803 C 182.195 183.011,183.383 270.572,184.422 272.030 C 185.630 273.728,189.787 273.811,190.419 272.150 C 190.994 270.637,190.909 182.413,190.332 181.718 C 189.688 180.941,183.854 181.012,183.197 181.803 M192.592 181.682 C 192.483 181.967,192.440 202.630,192.497 227.600 L 192.600 273.000 195.400 273.000 L 198.200 273.000 198.200 227.200 L 198.200 181.400 195.495 181.282 C 193.558 181.197,192.733 181.311,192.592 181.682 M202.098 181.531 C 201.700 181.784,201.618 191.229,201.698 227.425 L 201.800 273.000 204.649 273.116 C 207.327 273.226,207.513 273.178,207.744 272.316 C 208.249 270.431,208.031 182.191,207.520 181.680 C 206.986 181.146,202.883 181.033,202.098 181.531 M219.300 181.465 C 218.773 181.678,218.520 271.205,219.043 272.567 C 219.231 273.058,219.894 273.200,222.000 273.200 C 224.817 273.200,225.200 273.438,225.200 275.184 C 225.200 275.579,225.447 276.107,225.750 276.358 C 226.052 276.609,226.388 277.731,226.495 278.850 C 226.603 279.969,226.936 281.037,227.237 281.223 C 227.537 281.408,227.982 282.154,228.225 282.880 C 228.643 284.129,228.810 284.222,231.304 284.600 C 232.754 284.820,234.074 285.135,234.237 285.300 C 234.708 285.777,236.182 285.650,237.738 285.000 C 238.528 284.670,239.675 284.393,240.287 284.385 C 241.631 284.366,245.600 280.857,245.600 279.688 C 245.600 279.268,245.960 278.598,246.400 278.200 C 246.840 277.802,247.200 277.076,247.200 276.587 C 247.200 276.098,247.478 275.467,247.818 275.185 C 248.340 274.752,248.414 273.647,248.297 268.036 C 248.164 261.634,247.859 259.166,246.514 253.600 C 246.168 252.170,245.659 248.840,245.382 246.200 C 245.106 243.560,244.614 240.590,244.288 239.600 C 243.297 236.581,242.768 234.346,242.257 231.000 C 241.987 229.240,241.269 226.720,240.660 225.400 C 240.051 224.081,239.406 221.831,239.226 220.400 C 239.029 218.831,238.390 216.769,237.616 215.200 C 236.910 213.770,235.969 211.848,235.526 210.929 C 235.082 210.010,234.585 208.210,234.420 206.929 C 234.255 205.648,233.824 204.060,233.462 203.400 C 233.101 202.740,232.804 201.878,232.802 201.484 C 232.801 201.090,232.440 200.062,232.000 199.200 C 231.532 198.282,231.199 196.838,231.197 195.716 C 231.196 194.477,230.914 193.376,230.400 192.600 C 229.963 191.940,229.604 191.035,229.603 190.589 C 229.601 190.143,229.356 189.423,229.058 188.989 C 228.760 188.555,228.414 186.811,228.290 185.113 C 228.166 183.416,227.949 181.841,227.808 181.613 C 227.552 181.199,220.275 181.072,219.300 181.465 M207.818 280.749 C 207.275 281.289,206.364 281.383,202.481 281.299 C 197.114 281.182,196.929 281.250,196.575 283.468 C 196.109 286.382,200.688 288.233,203.420 286.235 C 204.086 285.748,204.380 285.748,205.545 286.235 C 209.074 287.709,212.000 286.611,212.000 283.812 C 212.000 281.611,209.093 279.482,207.818 280.749 M179.700 281.465 C 179.089 281.711,179.029 284.932,179.614 286.026 C 180.217 287.152,184.066 287.134,185.200 286.000 C 186.106 285.094,186.301 282.461,185.520 281.680 C 185.051 281.211,180.725 281.051,179.700 281.465 M189.300 281.465 C 188.589 281.752,188.632 286.162,189.351 286.759 C 190.164 287.434,194.488 287.177,195.087 286.418 C 195.718 285.618,195.741 282.301,195.120 281.680 C 194.651 281.211,190.325 281.051,189.300 281.465 M215.500 281.632 C 214.493 282.218,214.556 284.956,215.600 286.000 C 216.915 287.315,221.084 287.158,221.610 285.774 C 222.146 284.364,222.100 282.260,221.520 281.680 C 220.936 281.096,216.481 281.061,215.500 281.632 M198.924 296.500 C 198.746 296.775,198.510 298.710,198.400 300.800 L 198.200 304.600 194.084 304.800 C 189.841 305.006,189.220 305.272,189.206 306.891 C 189.194 308.262,191.052 308.960,194.533 308.891 C 198.521 308.811,198.386 308.611,198.394 314.620 C 198.401 319.937,198.582 320.400,200.666 320.400 C 202.514 320.400,202.853 319.484,202.932 314.277 C 203.014 308.917,203.262 308.637,207.560 309.067 C 210.412 309.352,211.200 308.862,211.200 306.804 C 211.200 305.128,210.519 304.801,207.020 304.794 C 202.795 304.786,202.778 304.771,202.677 300.903 C 202.572 296.837,200.374 294.260,198.924 296.500 " stroke="none" fill="#642c3c" fill-rule="evenodd"></path></g></svg>